<?xml version="1.0" standalone="no"?>
<!DOCTYPE svg PUBLIC "-//W3C//DTD SVG 20010904//EN"
 "http://www.w3.org/TR/2001/REC-SVG-20010904/DTD/svg10.dtd">
<svg version="1.0" xmlns="http://www.w3.org/2000/svg"
 width="512.000000pt" height="512.000000pt" viewBox="0 0 512.000000 512.000000"
 preserveAspectRatio="xMidYMid meet">
<metadata>
Created by potrace 1.14, written by Peter Selinger 2001-2017
</metadata>
<g transform="translate(0.000000,512.000000) scale(0.100000,-0.100000)"
fill="#000000" stroke="none">
<path d="M895 3974 c-45 -49 -38 -67 145 -383 94 -161 170 -295 170 -297 0 -2
21 -37 46 -79 25 -41 43 -79 39 -85 -3 -6 -21 -17 -38 -26 -63 -33 -225 -143
-322 -221 -386 -308 -676 -733 -826 -1213 -34 -106 -61 -213 -74 -295 -3 -16
-7 -41 -10 -55 -9 -44 -18 -124 -19 -164 l-1 -40 2557 0 2557 -1 -5 50 c-7 68
-12 109 -19 147 -4 18 -8 44 -10 58 -7 53 -37 179 -65 273 -163 545 -513 1028
-980 1349 -52 36 -121 80 -152 98 -32 17 -60 36 -64 41 -3 5 27 63 65 130 39
67 71 125 71 130 0 4 3 9 8 11 4 2 16 19 26 38 10 19 72 128 138 241 82 143
118 215 118 237 0 61 -74 102 -131 72 -10 -6 -40 -48 -66 -93 -27 -45 -52 -89
-58 -98 -5 -9 -23 -40 -39 -70 -16 -30 -43 -76 -60 -104 -18 -27 -50 -81 -71
-120 -22 -38 -46 -82 -55 -96 -8 -15 -37 -65 -64 -112 l-48 -85 -97 40 c-121
49 -282 99 -431 131 -530 118 -1110 65 -1605 -146 -33 -14 -61 -25 -61 -24 -3
3 -211 361 -236 407 -104 186 -202 348 -220 363 -31 26 -84 22 -113 -9z m603
-1737 c115 -75 127 -237 26 -332 -105 -99 -273 -64 -335 70 -41 87 -10 201 68
255 49 34 69 39 139 37 47 -2 71 -9 102 -30z m2330 14 c51 -27 81 -57 103
-105 63 -139 -41 -296 -195 -296 -96 0 -174 59 -200 152 -6 24 -11 50 -11 58
5 82 50 155 116 188 56 28 136 29 187 3z"/>
</g>
</svg>
