<?xml version="1.0" standalone="no"?>
<!DOCTYPE svg PUBLIC "-//W3C//DTD SVG 20010904//EN"
 "http://www.w3.org/TR/2001/REC-SVG-20010904/DTD/svg10.dtd">
<svg version="1.0" xmlns="http://www.w3.org/2000/svg"
 width="512.000000pt" height="512.000000pt" viewBox="0 0 512.000000 512.000000"
 preserveAspectRatio="xMidYMid meet">
<metadata>
Created by potrace 1.14, written by Peter Selinger 2001-2017
</metadata>
<g transform="translate(0.000000,512.000000) scale(0.100000,-0.100000)"
fill="#000000" stroke="none">
<path d="M3477 5115 c-1 -2 -29 -5 -62 -8 -83 -8 -117 -15 -215 -44 -205 -61
-340 -150 -479 -318 -13 -16 -43 -65 -67 -109 -58 -112 -92 -215 -119 -371
-18 -104 -25 -353 -10 -364 11 -9 179 -7 283 4 390 39 662 208 811 502 87 173
128 408 122 686 l-1 28 -130 -2 c-72 -1 -131 -3 -133 -4z m38 -237 c-2 -7 -6
-37 -9 -66 -22 -213 -112 -400 -247 -512 -80 -67 -200 -126 -295 -145 -21 -5
-46 -10 -54 -12 -29 -6 -125 -19 -145 -18 -13 0 -20 6 -19 17 22 276 129 490
303 607 96 64 229 115 335 127 28 4 53 8 55 10 2 2 21 4 42 4 26 0 37 -4 34
-12z"/>
<path d="M1629 3779 c-295 -25 -567 -156 -794 -384 -240 -239 -384 -544 -422
-890 -12 -109 -5 -486 11 -585 3 -14 7 -50 10 -80 6 -70 24 -193 30 -211 3 -8
7 -31 10 -51 30 -206 152 -583 254 -785 191 -377 430 -622 717 -736 108 -42
146 -49 293 -52 174 -4 345 37 511 119 76 38 176 74 235 84 68 12 267 7 321
-7 67 -17 144 -48 235 -91 66 -33 210 -79 295 -95 75 -15 262 -14 335 1 279
58 542 266 748 591 60 94 147 266 187 367 42 106 115 322 115 339 0 9 -15 17
-42 22 -24 4 -56 9 -72 12 -139 23 -293 88 -395 166 -223 171 -347 408 -357
682 -10 281 111 547 326 718 113 91 172 120 337 172 l131 41 -66 90 c-238 321
-544 508 -912 558 -223 31 -377 5 -732 -121 -163 -57 -261 -86 -297 -88 -43
-3 -80 6 -195 47 -456 161 -581 187 -817 167z m291 -235 c41 -7 174 -47 295
-89 424 -148 396 -147 744 -28 324 112 365 122 502 130 276 14 531 -74 746
-258 64 -56 68 -63 35 -80 -298 -152 -510 -430 -588 -769 -19 -80 -25 -316
-12 -399 40 -232 145 -438 308 -601 91 -91 106 -104 172 -147 24 -15 45 -30
48 -33 12 -12 140 -70 201 -91 l67 -23 -23 -61 c-84 -222 -223 -456 -360 -604
-93 -101 -236 -198 -347 -235 -177 -59 -386 -35 -603 69 -330 159 -609 159
-953 1 -120 -55 -165 -72 -217 -80 -16 -3 -51 -9 -76 -14 -69 -13 -208 -7
-275 13 -291 84 -556 387 -737 845 -54 137 -105 303 -132 430 -21 100 -36 176
-41 207 -3 21 -7 45 -9 53 -2 8 -7 47 -11 85 -3 39 -8 79 -10 90 -6 32 -18
261 -18 355 0 88 9 217 19 260 3 14 7 36 10 50 3 14 13 54 24 90 95 327 315
598 599 740 80 40 192 83 192 74 0 -3 9 0 19 5 10 6 43 13 73 17 29 3 55 8 56
9 10 9 237 1 302 -11z"/>
</g>
</svg>
